#!OML:ASF I:\Actors\actors\Patient Classification 1\Patient 1\Session 1\Subject1.ASF
:FULLY-SPECIFIED
:DEGREES
1277
root 0.16789 17.7093 8.25486 30.9865 1.99565 -8.79295
lowerback 23.254 -0.928198 5.56716
upperback 1.90327 0.374156 1.37703
thorax -10.8944 -0.0556152 -1.7724
lowerneck 5.64224 -15.5041 -15.0482
upperneck -25.8384 -17.4503 38.061
head -2.65628 -11.2401 15.6519
rclavicle -3.18055e-015 1.19271e-014
rhumerus 42.3098 45.3179 -51.6121
rradius 32.6067
rwrist 22.7568
rhand 0.897548 -26.1549
rfingers 7.12502
rthumb 26.4498 -54.3293
lclavicle -3.18055e-015 1.19271e-014
lhumerus 35.0737 -40.4334 60.9924
lradius 29.919
lwrist -3.85955
lhand -24.7531 -26.3718
lfingers 7.12502
lthumb 1.74998 3.60079
rfemur -28.5932 27.8569 12.2728
rtibia -2.06063
rfoot -13.0418 -33.9846
rtoes 18.6063
lfemur -18.8817 -7.61874 -1.85495
ltibia -13.1279
lfoot -12.7118 19.3375
ltoes 45.4204
1278
root 0.169994 17.7085 8.25761 30.7797 1.94576 -8.78853
lowerback 23.0671 -0.949792 5.50096
upperback 1.93034 0.313792 1.37059
thorax -10.7664 -0.0769717 -1.72288
lowerneck 4.93781 -15.7494 -15.6079
upperneck -23.218 -18.3841 37.5686
head -1.55116 -11.4081 14.984
rclavicle -2.78299e-015 -3.97569e-016
rhumerus 41.0025 44.8971 -54.386
rradius 30.2201
rwrist 24.9416
rhand -0.169119 -27.2779
rfingers 7.12502
rthumb 25.4284 -55.6019
lclavicle -2.78299e-015 -3.97569e-016
lhumerus 33.2914 -38.6512 64.791
lradius 27.663
lwrist -5.44521
lhand -26.2277 -26.843
lfingers 7.12502
lthumb 0.325849 3.13654
rfemur -28.3123 27.9363 12.3769
rtibia -2.08858
rfoot -13.1139 -33.9539
rtoes 18.9703
lfemur -18.5795 -7.87393 -1.81679
ltibia -13.2348
lfoot -12.8284 19.5577
ltoes 45.3117
1279
root 0.171933 17.7103 8.25717 30.4742 1.90102 -8.86349
lowerback 22.8588 -0.977742 5.46148
upperback 2.01364 0.246824 1.35383
thorax -10.5634 -0.100468 -1.69881
lowerneck 3.61176 -16.0683 -16.0616
upperneck -19.4781 -19.5934 36.5304
head -0.0850999 -11.5593 13.9455
rclavicle -3.97569e-015 -5.56597e-015
rhumerus 38.1999 43.3314 -59.3374
rradius 27.7394
rwrist 29.1003
rhand -0.13415 -26.4006
rfingers 7.12502
rthumb 25.4619 -54.7197
lclavicle -3.97569e-015 -5.56597e-015
lhumerus 31.5625 -36.9003 68.1699
lradius 25.5384
lwrist -6.93786
lhand -27.585 -27.2623
lfingers 7.12502
lthumb -0.985145 2.71514
rfemur -27.9473 28.0649 12.6024
rtibia -2.08666
rfoot -13.1583 -33.937
rtoes 19.0862
lfemur -18.1959 -8.13261 -1.74449
ltibia -13.3161
lfoot -12.8663 19.8145
ltoes 45.0256
1280
root 0.171336 17.7154 8.25446 30.1544 1.78747 -9.01345
lowerback 22.6085 -0.94557 5.39334
upperback 2.24979 0.24742 1.3974
thorax -10.1611 -0.0831863 -1.61391
lowerneck 4.60384 -15.7082 -16.6885
upperneck -17.8471 -19.5679 36.3472
head 0.220615 -11.476 14.0034
rclavicle 1.43125e-014 5.92378e-014
rhumerus 33.8514 39.1686 -66.8105
rradius 25.5322
rwrist 36.5144
rhand 0.340665 -24.4483
rfingers 7.12502
rthumb 25.9166 -52.7017
lclavicle 1.43125e-014 5.92378e-014
lhumerus 30.3123 -35.1261 71.0099
lradius 23.6354
lwrist -8.80875
lhand -28.6526 -28.2103
lfingers 7.12502
lthumb -2.01615 1.75988
rfemur -27.6487 28.2842 12.8494
rtibia -2.01216
rfoot -13.1401 -33.9691
rtoes 18.6469
lfemur -17.8443 -8.29556 -1.64849
ltibia -13.2794
lfoot -12.9276 20.0821
ltoes 44.68
1281
root 0.168732 17.7251 8.25226 29.9127 1.62194 -9.13508
lowerback 22.3127 -0.846263 5.26632
upperback 2.61972 0.313526 1.45974
thorax -9.58235 -0.0272924 -1.49558
lowerneck 3.86872 -16.0822 -17.2944
upperneck -14.8751 -20.7254 35.5658
head 1.40551 -11.7303 13.3189
rclavicle -7.55382e-015 -3.57812e-015
rhumerus 38.9418 45.1435 -58.2084
rradius 26.3245
rwrist 28.5711
rhand 0.311723 -25.9314
rfingers 7.12502
rthumb 25.8889 -54.1889
lclavicle -7.55382e-015 -3.57812e-015
lhumerus 29.8105 -33.8439 72.8862
lradius 22.2243
lwrist -10.9496
lhand -28.9962 -29.4109
lfingers 7.12502
lthumb -2.348 0.555931
rfemur -27.5694 28.5165 12.9888
rtibia -1.80249
rfoot -12.8259 -34.1052
rtoes 17.4404
lfemur -17.6107 -8.40958 -1.60317
ltibia -13.1486
lfoot -12.9254 20.3936
ltoes 44.1333
1282
root 0.166501 17.7389 8.25426 29.7463 1.52029 -9.25509
lowerback 22.0674 -0.791433 5.12504
upperback 2.87247 0.32377 1.4754
thorax -9.16835 -0.00432458 -1.40272
lowerneck 2.39692 -16.9899 -17.402
upperneck -11.1389 -22.6392 33.9146
head 2.9027 -12.239 12.0289
rclavicle -1.59028e-015 7.15625e-015
rhumerus 41.6121 48.055 -53.9731
rradius 27.1118
rwrist 24.3389
rhand -0.234185 -26.6664
rfingers 7.12502
rthumb 25.366 -54.9992
lclavicle -1.59028e-015 7.15625e-015
lhumerus 29.5693 -33.5913 73.5685
lradius 21.6521
lwrist -12.1199
lhand -28.1301 -29.688
lfingers 7.12502
lthumb -1.51158 0.286396
rfemur -27.4933 28.6954 13.1462
rtibia -1.65246
rfoot -12.6023 -34.1872
rtoes 17.0345
lfemur -17.4703 -8.5646 -1.52822
ltibia -12.9952
lfoot -12.953 20.7276
ltoes 43.6584
1283
root 0.164815 17.7535 8.25911 29.6291 1.49954 -9.35681
lowerback 21.8879 -0.804341 4.93128
upperback 3.01613 0.244031 1.48337
thorax -8.91812 -0.0278007 -1.26158
lowerneck 3.80231 -16.5803 -17.5643
upperneck -9.16597 -22.5825 33.2447
head 3.09548 -12.1762 11.948
rclavicle 7.95139e-016 3.97569e-016
rhumerus 42.8879 49.9905 -51.9978
rradius 27.8909
rwrist 21.1613
rhand -1.76066 -28.3609
rfingers 7.12502
rthumb 23.9029 -56.8933
lclavicle 7.95139e-016 3.97569e-016
lhumerus 29.5661 -34.4305 73.0008
lradius 21.5058
lwrist -13.1779
lhand -27.9466 -28.8753
lfingers 7.12502
lthumb -1.33438 1.10023
rfemur -27.3955 28.7908 13.3137
rtibia -1.57054
rfoot -12.5336 -34.2474
rtoes 17.1037
lfemur -17.4192 -8.78165 -1.42071
ltibia -12.8281
lfoot -12.9943 21.0602
ltoes 43.2562
1284
root 0.162163 17.7651 8.26412 29.5257 1.50147 -9.39079
lowerback 21.714 -0.778206 4.67686
upperback 3.27081 0.203365 1.55085
thorax -8.54662 -0.0272327 -1.03333
lowerneck 3.58814 -16.9377 -18.0028
upperneck -6.79741 -23.5593 32.6729
head 4.00132 -12.4719 11.5264
rclavicle -2.06736e-014 -8.74653e-015
rhumerus 43.0376 50.1584 -51.7115
rradius 28.0484
rwrist 21.7814
rhand -0.8425 -27.9858
rfingers 7.12502
rthumb 24.7832 -56.4
lclavicle -2.06736e-014 -8.74653e-015
lhumerus 30.1735 -35.5287 71.8564
lradius 21.6056
lwrist -13.7066
lhand -27.8659 -28.3837
lfingers 7.12502
lthumb -1.25639 1.59237
rfemur -27.309 28.8188 13.4103
rtibia -1.5024
rfoot -12.3884 -34.3217
rtoes 16.7119
lfemur -17.3918 -9.04866 -1.35964
ltibia -12.6827
lfoot -12.9369 21.3798
ltoes 42.6131
1285
root 0.159284 17.7717 8.26735 29.3936 1.55788 -9.40899
lowerback 21.5779 -0.74677 4.45018
upperback 3.61165 0.182541 1.69031
thorax -8.10069 -0.016692 -0.749127
lowerneck 3.38107 -17.2448 -18.2952
upperneck -5.05161 -24.3143 32.1593
head 4.67385 -12.7057 11.1736
rclavicle -6.36111e-015 -3.97569e-016
rhumerus 44.265 50.9579 -49.7519
rradius 28.3541
rwrist 20.3993
rhand -1.9514 -29.6546
rfingers 7.12502
rthumb 23.72 -58.2109
lclavicle -6.36111e-015 -3.97569e-016
lhumerus 30.9838 -36.4531 70.5634
lradius 21.8731
lwrist -14.1189
lhand -28.0228 -28.059
lfingers 7.12502
lthumb -1.40789 1.9161
rfemur -27.1692 28.8001 13.5465
rtibia -1.43699
rfoot -12.2005 -34.3366
rtoes 16.1636
lfemur -17.3261 -9.37564 -1.28097
ltibia -12.5952
lfoot -12.9113 21.6847
ltoes 42.0453
1286
root 0.158366 17.7735 8.26699 29.2538 1.6741 -9.41394
lowerback 21.4731 -0.84036 4.22121
upperback 3.82857 0.0043925 1.79181
thorax -7.81497 -0.0871162 -0.461232
lowerneck 3.62185 -17.1787 -18.2552
upperneck -3.91799 -24.4445 31.7734
head 4.9169 -12.7177 11.0268
rclavicle -6.36111e-015 1.82882e-014
rhumerus 44.5697 51.3895 -49.3204
rradius 28.3968
rwrist 19.3798
rhand -2.6642 -30.1089
rfingers 7.12502
rthumb 23.0362 -58.7522
lclavicle -6.36111e-015 1.82882e-014
lhumerus 31.3293 -37.1066 69.1985
lradius 22.3983
lwrist -13.9592
lhand -27.9496 -28.1179
lfingers 7.12502
lthumb -1.33722 1.85762
rfemur -27.0009 28.7133 13.6932
rtibia -1.39193
rfoot -12.2454 -34.2769
rtoes 16.2869
lfemur -17.2564 -9.76125 -1.1814
ltibia -12.5685
lfoot -12.9922 21.9669
ltoes 41.9072
1287
root 0.159525 17.7707 8.26552 29.1327 1.78953 -9.38811
lowerback 21.4242 -0.972189 4.00719
upperback 3.8894 -0.215349 1.8251
thorax -7.73026 -0.183992 -0.243706
lowerneck 4.21414 -16.861 -18.1328
upperneck -3.36687 -24.1612 31.7563
head 4.88069 -12.6001 11.1344
rclavicle -1.03368e-014 -1.59028e-015
rhumerus 43.627 51.2467 -50.639
rradius 28.2292
rwrist 19.4919
rhand -2.45441 -29.4626
rfingers 7.12502
rthumb 23.2375 -58.0806
lclavicle -1.03368e-014 -1.59028e-015
lhumerus 31.366 -37.8409 67.7082
lradius 23.2533
lwrist -12.908
lhand -27.3071 -28.4764
lfingers 7.12502
lthumb -0.716701 1.50217
rfemur -26.8138 28.5965 13.7858
rtibia -1.41283
rfoot -12.4857 -34.1854
rtoes 16.8282
lfemur -17.1726 -10.1683 -1.12337
ltibia -12.5897
lfoot -13.1377 22.2173
ltoes 41.9086
1288
root 0.161344 17.7647 8.26381 29.0762 1.88739 -9.40872
lowerback 21.4836 -0.962202 3.96032
upperback 3.95514 -0.202388 1.93333
thorax -7.68884 -0.174441 -0.103019
lowerneck 4.70813 -16.8708 -18.0128
upperneck -4.20615 -24.0803 32.2359
head 4.59966 -12.6643 11.36
rclavicle 1.19271e-014 -1.98785e-014
rhumerus 42.937 51.0075 -51.1751
rradius 28.2541
rwrist 19.5028
rhand -2.54453 -29.2595
rfingers 7.12502
rthumb 23.151 -57.8883
lclavicle 1.19271e-014 -1.98785e-014
lhumerus 31.7945 -38.8517 66.1744
lradius 24.1907
lwrist -11.7943
lhand -26.8033 -28.6585
lfingers 7.12502
lthumb -0.230136 1.32111
rfemur -26.6761 28.5198 13.89
rtibia -1.47473
rfoot -12.7098 -34.0875
rtoes 17.1782
lfemur -17.0945 -10.5142 -1.01094
ltibia -12.67
lfoot -13.4055 22.402
ltoes 42.0645
1289
root 0.16423 17.7559 8.26049 29.1697 1.98295 -9.47842
lowerback 21.5609 -0.86632 4.06279
upperback 3.93802 -0.0368619 2.08848
thorax -7.74345 -0.0974892 -0.0371791
lowerneck 5.00133 -16.951 -18.1962
upperneck -5.26227 -24.0753 33.0248
head 4.40995 -12.7692 11.698
rclavicle -2.54444e-014 -3.77691e-014
rhumerus 42.3387 50.8377 -51.2543
rradius 28.4961
rwrist 19.4458
rhand -2.77586 -29.5383
rfingers 7.12502
rthumb 22.9291 -58.1949
lclavicle -2.54444e-014 -3.77691e-014
lhumerus 32.3383 -39.9214 64.843
lradius 25.054
lwrist -10.9521
lhand -26.7081 -28.5623
lfingers 7.12502
lthumb -0.138195 1.41735
rfemur -26.7326 28.4483 13.9479
rtibia -1.54583
rfoot -12.8147 -33.9986
rtoes 17.3374
lfemur -17.1369 -10.7613 -0.782798
ltibia -12.8157
lfoot -13.7714 22.501
ltoes 42.562
1290
root 0.168071 17.746 8.25693 29.3803 2.06184 -9.49421
lowerback 21.5643 -0.754915 4.17579
upperback 3.8625 0.148351 2.22907
thorax -7.82278 -0.0124515 0.00120989
lowerneck 5.1663 -17.1694 -18.3196
upperneck -6.37153 -24.2116 33.5431
head 4.21222 -12.9298 11.889
rclavicle -1.19271e-015 2.66371e-014
rhumerus 41.1605 50.1588 -52.1152
rradius 28.692
rwrist 20.0771
rhand -2.13007 -28.8667
rfingers 7.12502
rthumb 23.5486 -57.4451
lclavicle -1.19271e-015 2.66371e-014
lhumerus 32.8315 -40.7976 63.8046
lradius 25.8438
lwrist -10.2384
lhand -26.4581 -28.3604
lfingers 7.12502
lthumb 0.10331 1.61928
rfemur -26.9213 28.3393 13.8699
rtibia -1.64554
rfoot -12.8938 -33.9071
rtoes 17.6643
lfemur -17.3133 -10.9743 -0.573292
ltibia -12.9533
lfoot -14.0962 22.5753
ltoes 43.0843
1291
root 0.16989 17.7383 8.25386 29.6076 2.10327 -9.44235
lowerback 21.5636 -0.61884 4.25638
upperback 3.81977 0.354556 2.34576
thorax -7.86352 0.0838139 0.0257378
lowerneck 5.17924 -17.5125 -18.495
upperneck -7.43395 -24.5166 33.9842
head 4.09532 -13.1554 12.002
rclavicle 3.97569e-016 -2.70347e-014
rhumerus 39.7856 48.944 -53.3302
rradius 28.7957
rwrist 21.2873
rhand -0.554656 -27.0364
rfingers 7.12502
rthumb 25.059 -55.4124
lclavicle 3.97569e-016 -2.70347e-014
lhumerus 33.5192 -41.4794 62.8488
lradius 26.6193
lwrist -9.21967
lhand -24.8786 -27.8044
lfingers 7.12502
lthumb 1.62884 2.16913
rfemur -27.1321 28.2313 13.7118
rtibia -1.73719
rfoot -12.9205 -33.845
rtoes 17.9859
lfemur -17.5207 -11.1816 -0.434769
ltibia -13.0676
lfoot -14.3699 22.6585
ltoes 43.5428
